<svg width="44" height="44" fill="none" xmlns="http://www.w3.org/2000/svg"><rect x="1" y="1" width="42" height="42" rx="21" fill="#FFDB58" stroke="#101010" stroke-width="2"/><mask id="a" fill="#fff"><path fill-rule="evenodd" clip-rule="evenodd" d="M12.88 16.878a2.992 2.992 0 0 0 0 4.238l7.018 7.003a3.01 3.01 0 0 0 3.367.61c.323-.145.625-.35.89-.614l6.98-6.965a2.992 2.992 0 0 0 0-4.238 3.008 3.008 0 0 0-4.248 0l-4.863 4.853-4.897-4.887a3.008 3.008 0 0 0-4.247 0Z"/></mask><path fill-rule="evenodd" clip-rule="evenodd" d="M12.88 16.878a2.992 2.992 0 0 0 0 4.238l7.018 7.003a3.01 3.01 0 0 0 3.367.61c.323-.145.625-.35.89-.614l6.98-6.965a2.992 2.992 0 0 0 0-4.238 3.008 3.008 0 0 0-4.248 0l-4.863 4.853-4.897-4.887a3.008 3.008 0 0 0-4.247 0Z" fill="#DAF5F0"/><path d="m12.88 21.116-.76.761.76-.761Zm0-4.238.76.761-.76-.761Zm7.018 11.241.76-.761-.76.761Zm3.367.61-.44-.981-.004.001.444.98Zm.89-.614.76.761-.76-.761Zm6.98-6.965-.76-.761.76.761Zm0-4.238.76-.761-.76.761Zm-4.248 0-.76-.761.76.761Zm-4.863 4.853-.76.761.76.759.76-.759-.76-.761Zm-4.897-4.887-.76.761.76-.761Zm-3.488 3.477a1.917 1.917 0 0 1 0-2.716l-1.52-1.523a4.068 4.068 0 0 0 0 5.761l1.52-1.522Zm7.019 7.003-7.019-7.003-1.52 1.522 7.019 7.004 1.52-1.523Zm2.163.391c-.713.324-1.58.19-2.163-.391l-1.52 1.523a4.085 4.085 0 0 0 4.571.828l-.888-1.96Zm.575-.396a1.92 1.92 0 0 1-.572.395l.881 1.962c.44-.197.851-.476 1.21-.834l-1.52-1.523Zm6.979-6.964-6.98 6.964 1.52 1.523 6.98-6.964-1.52-1.523Zm0-2.715c.751.75.751 1.965 0 2.715l1.52 1.523a4.068 4.068 0 0 0 0-5.761l-1.52 1.523Zm-2.728 0a1.932 1.932 0 0 1 2.728 0l1.52-1.523a4.083 4.083 0 0 0-5.767 0l1.52 1.523Zm-4.863 4.852 4.863-4.852-1.52-1.523-4.863 4.852 1.52 1.523Zm-6.417-4.887 4.897 4.887 1.52-1.523-4.897-4.887-1.52 1.523Zm-2.728 0a1.932 1.932 0 0 1 2.728 0l1.52-1.523a4.083 4.083 0 0 0-5.767 0l1.52 1.523Z" fill="#101010" mask="url(#a)"/></svg>